<?xml version="1.0" encoding="UTF-8" standalone="no"?>
<!DOCTYPE svg PUBLIC "-//W3C//DTD SVG 1.1//EN"
 "http://www.w3.org/Graphics/SVG/1.1/DTD/svg11.dtd">
<!-- Generated by graphviz version 2.34.0 (20140110.0526)
 -->
<!-- Title: controllers_diagram Pages: 1 -->
<svg width="945pt" height="961pt"
 viewBox="0.00 0.00 945.38 961.17" xmlns="http://www.w3.org/2000/svg" xmlns:xlink="http://www.w3.org/1999/xlink">
<g id="graph0" class="graph" transform="scale(1 1) rotate(0) translate(4 957.168)">
<title>controllers_diagram</title>
<polygon fill="white" stroke="white" points="-4,4 -4,-957.168 941.375,-957.168 941.375,4 -4,4"/>
<!-- _diagram_info -->
<g id="node1" class="node"><title>_diagram_info</title>
<text text-anchor="start" x="738" y="-69" font-family="Times,serif" font-size="13.00">Controllers diagram</text>
<text text-anchor="start" x="738" y="-53.4" font-family="Times,serif" font-size="13.00">Date: May 07 2014 &#45; 22:05</text>
<text text-anchor="start" x="738" y="-37.8" font-family="Times,serif" font-size="13.00">Migration version: 20140506030512</text>
<text text-anchor="start" x="738" y="-22.2" font-family="Times,serif" font-size="13.00">Generated by RailRoady 1.1.1</text>
<text text-anchor="start" x="738" y="-6.6" font-family="Times,serif" font-size="13.00">http://railroady.prestonlee.com</text>
</g>
<!-- AnnotationsController -->
<g id="node2" class="node"><title>AnnotationsController</title>
<path fill="none" stroke="black" d="M12,-494.993C12,-494.993 141.635,-494.993 141.635,-494.993 147.635,-494.993 153.635,-500.993 153.635,-506.993 153.635,-506.993 153.635,-732.593 153.635,-732.593 153.635,-738.593 147.635,-744.593 141.635,-744.593 141.635,-744.593 12,-744.593 12,-744.593 6,-744.593 0,-738.593 0,-732.593 0,-732.593 0,-506.993 0,-506.993 0,-500.993 6,-494.993 12,-494.993"/>
<text text-anchor="middle" x="76.8174" y="-726.593" font-family="Times,serif" font-size="14.00">AnnotationsController</text>
<polyline fill="none" stroke="black" points="0,-719.793 153.635,-719.793 "/>
<text text-anchor="start" x="8" y="-701.793" font-family="Times,serif" font-size="14.00">create</text>
<text text-anchor="start" x="8" y="-684.993" font-family="Times,serif" font-size="14.00">destroy</text>
<text text-anchor="start" x="8" y="-668.193" font-family="Times,serif" font-size="14.00">edit</text>
<text text-anchor="start" x="8" y="-651.393" font-family="Times,serif" font-size="14.00">index</text>
<text text-anchor="start" x="8" y="-634.593" font-family="Times,serif" font-size="14.00">new</text>
<text text-anchor="start" x="8" y="-617.793" font-family="Times,serif" font-size="14.00">show</text>
<text text-anchor="start" x="8" y="-600.993" font-family="Times,serif" font-size="14.00">update</text>
<polyline fill="none" stroke="black" points="0,-594.193 153.635,-594.193 "/>
<polyline fill="none" stroke="black" points="0,-570.193 153.635,-570.193 "/>
<text text-anchor="start" x="8" y="-552.193" font-family="Times,serif" font-size="14.00">_layout</text>
<text text-anchor="start" x="8" y="-535.393" font-family="Times,serif" font-size="14.00">annotation_params</text>
<text text-anchor="start" x="8" y="-518.593" font-family="Times,serif" font-size="14.00">set_annotation</text>
<text text-anchor="start" x="8" y="-501.793" font-family="Times,serif" font-size="14.00">set_annotation_response</text>
</g>
<!-- ApplicationController -->
<g id="node3" class="node"><title>ApplicationController</title>
<path fill="none" stroke="black" d="M392.73,-433.267C392.73,-433.267 508.371,-433.267 508.371,-433.267 514.371,-433.267 520.371,-439.267 520.371,-445.267 520.371,-445.267 520.371,-570.067 520.371,-570.067 520.371,-576.067 514.371,-582.067 508.371,-582.067 508.371,-582.067 392.73,-582.067 392.73,-582.067 386.73,-582.067 380.73,-576.067 380.73,-570.067 380.73,-570.067 380.73,-445.267 380.73,-445.267 380.73,-439.267 386.73,-433.267 392.73,-433.267"/>
<text text-anchor="middle" x="450.55" y="-564.067" font-family="Times,serif" font-size="14.00">ApplicationController</text>
<polyline fill="none" stroke="black" points="380.73,-557.267 520.371,-557.267 "/>
<polyline fill="none" stroke="black" points="380.73,-533.267 520.371,-533.267 "/>
<text text-anchor="start" x="388.73" y="-515.267" font-family="Times,serif" font-size="14.00">require_admin</text>
<text text-anchor="start" x="388.73" y="-498.467" font-family="Times,serif" font-size="14.00">require_login</text>
<text text-anchor="start" x="388.73" y="-481.667" font-family="Times,serif" font-size="14.00">require_student</text>
<text text-anchor="start" x="388.73" y="-464.867" font-family="Times,serif" font-size="14.00">require_teacher</text>
<polyline fill="none" stroke="black" points="380.73,-458.067 520.371,-458.067 "/>
<text text-anchor="start" x="388.73" y="-440.067" font-family="Times,serif" font-size="14.00">_layout</text>
</g>
<!-- ApplicationController&#45;&gt;AnnotationsController -->
<g id="edge1" class="edge"><title>ApplicationController&#45;&gt;AnnotationsController</title>
<path fill="none" stroke="black" d="M380.692,-528.626C317.787,-547.498 225.281,-575.252 158.875,-595.175"/>
<polyline fill="none" stroke="black" points="153.739,-596.716 158.528,-595.279 "/>
</g>
<!-- AssignmentsController -->
<g id="node4" class="node"><title>AssignmentsController</title>
<path fill="none" stroke="black" d="M475.284,-0.5C475.284,-0.5 597.167,-0.5 597.167,-0.5 603.167,-0.5 609.167,-6.5 609.167,-12.5 609.167,-12.5 609.167,-238.1 609.167,-238.1 609.167,-244.1 603.167,-250.1 597.167,-250.1 597.167,-250.1 475.284,-250.1 475.284,-250.1 469.284,-250.1 463.284,-244.1 463.284,-238.1 463.284,-238.1 463.284,-12.5 463.284,-12.5 463.284,-6.5 469.284,-0.5 475.284,-0.5"/>
<text text-anchor="middle" x="536.225" y="-232.1" font-family="Times,serif" font-size="14.00">AssignmentsController</text>
<polyline fill="none" stroke="black" points="463.284,-225.3 609.167,-225.3 "/>
<text text-anchor="start" x="471.284" y="-207.3" font-family="Times,serif" font-size="14.00">create</text>
<text text-anchor="start" x="471.284" y="-190.5" font-family="Times,serif" font-size="14.00">destroy</text>
<text text-anchor="start" x="471.284" y="-173.7" font-family="Times,serif" font-size="14.00">edit</text>
<text text-anchor="start" x="471.284" y="-156.9" font-family="Times,serif" font-size="14.00">index</text>
<text text-anchor="start" x="471.284" y="-140.1" font-family="Times,serif" font-size="14.00">new</text>
<text text-anchor="start" x="471.284" y="-123.3" font-family="Times,serif" font-size="14.00">show</text>
<text text-anchor="start" x="471.284" y="-106.5" font-family="Times,serif" font-size="14.00">update</text>
<polyline fill="none" stroke="black" points="463.284,-99.7 609.167,-99.7 "/>
<polyline fill="none" stroke="black" points="463.284,-75.7 609.167,-75.7 "/>
<text text-anchor="start" x="471.284" y="-57.7" font-family="Times,serif" font-size="14.00">_layout</text>
<text text-anchor="start" x="471.284" y="-40.9" font-family="Times,serif" font-size="14.00">assignment_params</text>
<text text-anchor="start" x="471.284" y="-24.1" font-family="Times,serif" font-size="14.00">set_assignment</text>
<text text-anchor="start" x="471.284" y="-7.3" font-family="Times,serif" font-size="14.00">set_assignment_course</text>
</g>
<!-- ApplicationController&#45;&gt;AssignmentsController -->
<g id="edge2" class="edge"><title>ApplicationController&#45;&gt;AssignmentsController</title>
<path fill="none" stroke="black" d="M467.273,-433.035C478.593,-382.512 493.848,-314.429 507.131,-255.147"/>
<polyline fill="none" stroke="black" points="508.247,-250.169 507.153,-255.048 "/>
</g>
<!-- AudioFilesController -->
<g id="node5" class="node"><title>AudioFilesController</title>
<path fill="none" stroke="black" d="M440.617,-837.468C440.617,-837.468 552.39,-837.468 552.39,-837.468 558.39,-837.468 564.39,-843.468 564.39,-849.468 564.39,-849.468 564.39,-940.668 564.39,-940.668 564.39,-946.668 558.39,-952.668 552.39,-952.668 552.39,-952.668 440.617,-952.668 440.617,-952.668 434.617,-952.668 428.617,-946.668 428.617,-940.668 428.617,-940.668 428.617,-849.468 428.617,-849.468 428.617,-843.468 434.617,-837.468 440.617,-837.468"/>
<text text-anchor="middle" x="496.503" y="-934.668" font-family="Times,serif" font-size="14.00">AudioFilesController</text>
<polyline fill="none" stroke="black" points="428.617,-927.868 564.39,-927.868 "/>
<text text-anchor="start" x="436.617" y="-909.868" font-family="Times,serif" font-size="14.00">show</text>
<polyline fill="none" stroke="black" points="428.617,-903.068 564.39,-903.068 "/>
<polyline fill="none" stroke="black" points="428.617,-879.068 564.39,-879.068 "/>
<text text-anchor="start" x="436.617" y="-861.068" font-family="Times,serif" font-size="14.00">_layout</text>
<text text-anchor="start" x="436.617" y="-844.268" font-family="Times,serif" font-size="14.00">set_audio_file</text>
</g>
<!-- ApplicationController&#45;&gt;AudioFilesController -->
<g id="edge3" class="edge"><title>ApplicationController&#45;&gt;AudioFilesController</title>
<path fill="none" stroke="black" d="M459.411,-582.362C468.015,-654.899 480.931,-763.788 489.03,-832.066"/>
<polyline fill="none" stroke="black" points="489.653,-837.319 489.064,-832.354 "/>
</g>
<!-- CoursesController -->
<g id="node6" class="node"><title>CoursesController</title>
<path fill="none" stroke="black" d="M688.367,-657.181C688.367,-657.181 783.023,-657.181 783.023,-657.181 789.023,-657.181 795.023,-663.181 795.023,-669.181 795.023,-669.181 795.023,-877.981 795.023,-877.981 795.023,-883.981 789.023,-889.981 783.023,-889.981 783.023,-889.981 688.367,-889.981 688.367,-889.981 682.367,-889.981 676.367,-883.981 676.367,-877.981 676.367,-877.981 676.367,-669.181 676.367,-669.181 676.367,-663.181 682.367,-657.181 688.367,-657.181"/>
<text text-anchor="middle" x="735.695" y="-871.981" font-family="Times,serif" font-size="14.00">CoursesController</text>
<polyline fill="none" stroke="black" points="676.367,-865.181 795.023,-865.181 "/>
<text text-anchor="start" x="684.367" y="-847.181" font-family="Times,serif" font-size="14.00">create</text>
<text text-anchor="start" x="684.367" y="-830.381" font-family="Times,serif" font-size="14.00">destroy</text>
<text text-anchor="start" x="684.367" y="-813.581" font-family="Times,serif" font-size="14.00">edit</text>
<text text-anchor="start" x="684.367" y="-796.781" font-family="Times,serif" font-size="14.00">index</text>
<text text-anchor="start" x="684.367" y="-779.981" font-family="Times,serif" font-size="14.00">new</text>
<text text-anchor="start" x="684.367" y="-763.181" font-family="Times,serif" font-size="14.00">show</text>
<text text-anchor="start" x="684.367" y="-746.381" font-family="Times,serif" font-size="14.00">update</text>
<polyline fill="none" stroke="black" points="676.367,-739.581 795.023,-739.581 "/>
<polyline fill="none" stroke="black" points="676.367,-715.581 795.023,-715.581 "/>
<text text-anchor="start" x="684.367" y="-697.581" font-family="Times,serif" font-size="14.00">_layout</text>
<text text-anchor="start" x="684.367" y="-680.781" font-family="Times,serif" font-size="14.00">course_params</text>
<text text-anchor="start" x="684.367" y="-663.981" font-family="Times,serif" font-size="14.00">set_course</text>
</g>
<!-- ApplicationController&#45;&gt;CoursesController -->
<g id="edge4" class="edge"><title>ApplicationController&#45;&gt;CoursesController</title>
<path fill="none" stroke="black" d="M520.67,-573.058C567.023,-616.284 627.292,-672.489 672.225,-714.391"/>
<polyline fill="none" stroke="black" points="675.977,-717.891 672.32,-714.481 "/>
</g>
<!-- EnrollmentsController -->
<g id="node7" class="node"><title>EnrollmentsController</title>
<path fill="none" stroke="black" d="M177.213,-717.06C177.213,-717.06 295.193,-717.06 295.193,-717.06 301.193,-717.06 307.193,-723.06 307.193,-729.06 307.193,-729.06 307.193,-937.86 307.193,-937.86 307.193,-943.86 301.193,-949.86 295.193,-949.86 295.193,-949.86 177.213,-949.86 177.213,-949.86 171.213,-949.86 165.213,-943.86 165.213,-937.86 165.213,-937.86 165.213,-729.06 165.213,-729.06 165.213,-723.06 171.213,-717.06 177.213,-717.06"/>
<text text-anchor="middle" x="236.203" y="-931.86" font-family="Times,serif" font-size="14.00">EnrollmentsController</text>
<polyline fill="none" stroke="black" points="165.213,-925.06 307.193,-925.06 "/>
<text text-anchor="start" x="173.213" y="-907.06" font-family="Times,serif" font-size="14.00">create</text>
<text text-anchor="start" x="173.213" y="-890.26" font-family="Times,serif" font-size="14.00">destroy</text>
<text text-anchor="start" x="173.213" y="-873.46" font-family="Times,serif" font-size="14.00">edit</text>
<text text-anchor="start" x="173.213" y="-856.66" font-family="Times,serif" font-size="14.00">index</text>
<text text-anchor="start" x="173.213" y="-839.86" font-family="Times,serif" font-size="14.00">new</text>
<text text-anchor="start" x="173.213" y="-823.06" font-family="Times,serif" font-size="14.00">show</text>
<text text-anchor="start" x="173.213" y="-806.26" font-family="Times,serif" font-size="14.00">update</text>
<polyline fill="none" stroke="black" points="165.213,-799.46 307.193,-799.46 "/>
<polyline fill="none" stroke="black" points="165.213,-775.46 307.193,-775.46 "/>
<text text-anchor="start" x="173.213" y="-757.46" font-family="Times,serif" font-size="14.00">_layout</text>
<text text-anchor="start" x="173.213" y="-740.66" font-family="Times,serif" font-size="14.00">enrollment_params</text>
<text text-anchor="start" x="173.213" y="-723.86" font-family="Times,serif" font-size="14.00">set_enrollment</text>
</g>
<!-- ApplicationController&#45;&gt;EnrollmentsController -->
<g id="edge5" class="edge"><title>ApplicationController&#45;&gt;EnrollmentsController</title>
<path fill="none" stroke="black" d="M401.375,-582.411C374.374,-623.45 340.345,-675.171 310.201,-720.988"/>
<polyline fill="none" stroke="black" points="307.297,-725.403 310.045,-721.226 "/>
</g>
<!-- ResponsesController -->
<g id="node8" class="node"><title>ResponsesController</title>
<path fill="none" stroke="black" d="M23.7197,-219.593C23.7197,-219.593 157.251,-219.593 157.251,-219.593 163.251,-219.593 169.251,-225.593 169.251,-231.593 169.251,-231.593 169.251,-473.993 169.251,-473.993 169.251,-479.993 163.251,-485.993 157.251,-485.993 157.251,-485.993 23.7197,-485.993 23.7197,-485.993 17.7197,-485.993 11.7197,-479.993 11.7197,-473.993 11.7197,-473.993 11.7197,-231.593 11.7197,-231.593 11.7197,-225.593 17.7197,-219.593 23.7197,-219.593"/>
<text text-anchor="middle" x="90.4853" y="-467.993" font-family="Times,serif" font-size="14.00">ResponsesController</text>
<polyline fill="none" stroke="black" points="11.7197,-461.193 169.251,-461.193 "/>
<text text-anchor="start" x="19.7197" y="-443.193" font-family="Times,serif" font-size="14.00">create</text>
<text text-anchor="start" x="19.7197" y="-426.393" font-family="Times,serif" font-size="14.00">destroy</text>
<text text-anchor="start" x="19.7197" y="-409.593" font-family="Times,serif" font-size="14.00">edit</text>
<text text-anchor="start" x="19.7197" y="-392.793" font-family="Times,serif" font-size="14.00">edit_score</text>
<text text-anchor="start" x="19.7197" y="-375.993" font-family="Times,serif" font-size="14.00">index</text>
<text text-anchor="start" x="19.7197" y="-359.193" font-family="Times,serif" font-size="14.00">new</text>
<text text-anchor="start" x="19.7197" y="-342.393" font-family="Times,serif" font-size="14.00">show</text>
<text text-anchor="start" x="19.7197" y="-325.593" font-family="Times,serif" font-size="14.00">update</text>
<polyline fill="none" stroke="black" points="11.7197,-318.793 169.251,-318.793 "/>
<polyline fill="none" stroke="black" points="11.7197,-294.793 169.251,-294.793 "/>
<text text-anchor="start" x="19.7197" y="-276.793" font-family="Times,serif" font-size="14.00">_layout</text>
<text text-anchor="start" x="19.7197" y="-259.993" font-family="Times,serif" font-size="14.00">set_response</text>
<text text-anchor="start" x="19.7197" y="-243.193" font-family="Times,serif" font-size="14.00">set_response_assignment</text>
<text text-anchor="start" x="19.7197" y="-226.393" font-family="Times,serif" font-size="14.00">set_response_user</text>
</g>
<!-- ApplicationController&#45;&gt;ResponsesController -->
<g id="edge6" class="edge"><title>ApplicationController&#45;&gt;ResponsesController</title>
<path fill="none" stroke="black" d="M380.699,-477.622C321.701,-452.246 237.053,-415.836 174.39,-388.883"/>
<polyline fill="none" stroke="black" points="169.538,-386.796 174.131,-388.772 "/>
</g>
<!-- SessionsController -->
<g id="node9" class="node"><title>SessionsController</title>
<path fill="none" stroke="black" d="M791.341,-468.632C791.341,-468.632 889.12,-468.632 889.12,-468.632 895.12,-468.632 901.12,-474.632 901.12,-480.632 901.12,-480.632 901.12,-572.632 901.12,-572.632 901.12,-578.632 895.12,-584.632 889.12,-584.632 889.12,-584.632 791.341,-584.632 791.341,-584.632 785.341,-584.632 779.341,-578.632 779.341,-572.632 779.341,-572.632 779.341,-480.632 779.341,-480.632 779.341,-474.632 785.341,-468.632 791.341,-468.632"/>
<text text-anchor="middle" x="840.231" y="-566.632" font-family="Times,serif" font-size="14.00">SessionsController</text>
<polyline fill="none" stroke="black" points="779.341,-559.832 901.12,-559.832 "/>
<text text-anchor="start" x="787.341" y="-541.832" font-family="Times,serif" font-size="14.00">create</text>
<text text-anchor="start" x="787.341" y="-525.032" font-family="Times,serif" font-size="14.00">destroy</text>
<polyline fill="none" stroke="black" points="779.341,-518.232 901.12,-518.232 "/>
<text text-anchor="start" x="787.341" y="-500.232" font-family="Times,serif" font-size="14.00">auth_hash</text>
<polyline fill="none" stroke="black" points="779.341,-493.432 901.12,-493.432 "/>
<text text-anchor="start" x="787.341" y="-475.432" font-family="Times,serif" font-size="14.00">_layout</text>
</g>
<!-- ApplicationController&#45;&gt;SessionsController -->
<g id="edge7" class="edge"><title>ApplicationController&#45;&gt;SessionsController</title>
<path fill="none" stroke="black" d="M520.667,-511.08C592.674,-514.584 703.89,-519.997 774.322,-523.425"/>
<polyline fill="none" stroke="black" points="779.321,-523.668 774.327,-523.425 "/>
</g>
<!-- UsersController -->
<g id="node10" class="node"><title>UsersController</title>
<path fill="none" stroke="black" d="M233.217,-45.6535C233.217,-45.6535 314.645,-45.6535 314.645,-45.6535 320.645,-45.6535 326.645,-51.6535 326.645,-57.6535 326.645,-57.6535 326.645,-266.453 326.645,-266.453 326.645,-272.453 320.645,-278.453 314.645,-278.453 314.645,-278.453 233.217,-278.453 233.217,-278.453 227.217,-278.453 221.217,-272.453 221.217,-266.453 221.217,-266.453 221.217,-57.6535 221.217,-57.6535 221.217,-51.6535 227.217,-45.6535 233.217,-45.6535"/>
<text text-anchor="middle" x="273.931" y="-260.453" font-family="Times,serif" font-size="14.00">UsersController</text>
<polyline fill="none" stroke="black" points="221.217,-253.653 326.645,-253.653 "/>
<text text-anchor="start" x="229.217" y="-235.653" font-family="Times,serif" font-size="14.00">create</text>
<text text-anchor="start" x="229.217" y="-218.853" font-family="Times,serif" font-size="14.00">destroy</text>
<text text-anchor="start" x="229.217" y="-202.053" font-family="Times,serif" font-size="14.00">edit</text>
<text text-anchor="start" x="229.217" y="-185.253" font-family="Times,serif" font-size="14.00">index</text>
<text text-anchor="start" x="229.217" y="-168.453" font-family="Times,serif" font-size="14.00">new</text>
<text text-anchor="start" x="229.217" y="-151.653" font-family="Times,serif" font-size="14.00">show</text>
<text text-anchor="start" x="229.217" y="-134.853" font-family="Times,serif" font-size="14.00">update</text>
<polyline fill="none" stroke="black" points="221.217,-128.053 326.645,-128.053 "/>
<polyline fill="none" stroke="black" points="221.217,-104.053 326.645,-104.053 "/>
<text text-anchor="start" x="229.217" y="-86.0535" font-family="Times,serif" font-size="14.00">_layout</text>
<text text-anchor="start" x="229.217" y="-69.2535" font-family="Times,serif" font-size="14.00">set_user</text>
<text text-anchor="start" x="229.217" y="-52.4535" font-family="Times,serif" font-size="14.00">user_params</text>
</g>
<!-- ApplicationController&#45;&gt;UsersController -->
<g id="edge8" class="edge"><title>ApplicationController&#45;&gt;UsersController</title>
<path fill="none" stroke="black" d="M412.444,-433.1C388.13,-385.521 356.213,-323.065 329.145,-270.098"/>
<polyline fill="none" stroke="black" points="326.708,-265.329 328.983,-269.782 "/>
</g>
<!-- WelcomeController -->
<g id="node11" class="node"><title>WelcomeController</title>
<path fill="none" stroke="black" d="M709.641,-222.145C709.641,-222.145 811.706,-222.145 811.706,-222.145 817.706,-222.145 823.706,-228.145 823.706,-234.145 823.706,-234.145 823.706,-308.545 823.706,-308.545 823.706,-314.545 817.706,-320.545 811.706,-320.545 811.706,-320.545 709.641,-320.545 709.641,-320.545 703.641,-320.545 697.641,-314.545 697.641,-308.545 697.641,-308.545 697.641,-234.145 697.641,-234.145 697.641,-228.145 703.641,-222.145 709.641,-222.145"/>
<text text-anchor="middle" x="760.673" y="-302.545" font-family="Times,serif" font-size="14.00">WelcomeController</text>
<polyline fill="none" stroke="black" points="697.641,-295.745 823.706,-295.745 "/>
<text text-anchor="start" x="705.641" y="-277.745" font-family="Times,serif" font-size="14.00">index</text>
<polyline fill="none" stroke="black" points="697.641,-270.945 823.706,-270.945 "/>
<polyline fill="none" stroke="black" points="697.641,-246.945 823.706,-246.945 "/>
<text text-anchor="start" x="705.641" y="-228.945" font-family="Times,serif" font-size="14.00">_layout</text>
</g>
<!-- ApplicationController&#45;&gt;WelcomeController -->
<g id="edge9" class="edge"><title>ApplicationController&#45;&gt;WelcomeController</title>
<path fill="none" stroke="black" d="M520.535,-454.337C572.229,-414.945 642.195,-361.629 693.268,-322.71"/>
<polyline fill="none" stroke="black" points="697.529,-319.463 693.553,-322.493 "/>
</g>
</g>
</svg>
