<?xml version="1.0" encoding="UTF-8" standalone="no"?>
<!DOCTYPE svg PUBLIC "-//W3C//DTD SVG 1.1//EN"
 "http://www.w3.org/Graphics/SVG/1.1/DTD/svg11.dtd">
<!-- Generated by graphviz version 2.34.0 (20140110.0526)
 -->
<!-- Title: controllers_diagram Pages: 1 -->
<svg width="839pt" height="666pt"
 viewBox="0.00 0.00 839.38 666.00" xmlns="http://www.w3.org/2000/svg" xmlns:xlink="http://www.w3.org/1999/xlink">
<g id="graph0" class="graph" transform="scale(1 1) rotate(0) translate(4 662)">
<title>controllers_diagram</title>
<polygon fill="white" stroke="white" points="-4,4 -4,-662 835.375,-662 835.375,4 -4,4"/>
<!-- _diagram_info -->
<g id="node1" class="node"><title>_diagram_info</title>
<text text-anchor="start" x="632" y="-641" font-family="Times,serif" font-size="13.00">Controllers diagram</text>
<text text-anchor="start" x="632" y="-625.4" font-family="Times,serif" font-size="13.00">Date: May 07 2014 &#45; 22:05</text>
<text text-anchor="start" x="632" y="-609.8" font-family="Times,serif" font-size="13.00">Migration version: 20140506030512</text>
<text text-anchor="start" x="632" y="-594.2" font-family="Times,serif" font-size="13.00">Generated by RailRoady 1.1.1</text>
<text text-anchor="start" x="632" y="-578.6" font-family="Times,serif" font-size="13.00">http://railroady.prestonlee.com</text>
</g>
<!-- AnnotationsController -->
<g id="node2" class="node"><title>AnnotationsController</title>
<ellipse fill="none" stroke="black" cx="97.9396" cy="-371.163" rx="97.8792" ry="18"/>
<text text-anchor="middle" x="97.9396" y="-365.563" font-family="Times,serif" font-size="14.00">AnnotationsController</text>
</g>
<!-- ApplicationController -->
<g id="node3" class="node"><title>ApplicationController</title>
<ellipse fill="none" stroke="black" cx="364.857" cy="-291.084" rx="96.1448" ry="18"/>
<text text-anchor="middle" x="364.857" y="-285.484" font-family="Times,serif" font-size="14.00">ApplicationController</text>
</g>
<!-- ApplicationController&#45;&gt;AnnotationsController -->
<g id="edge1" class="edge"><title>ApplicationController&#45;&gt;AnnotationsController</title>
<path fill="none" stroke="black" d="M313.708,-306.429C268.14,-320.1 201.567,-340.073 154.441,-354.212"/>
<polyline fill="none" stroke="black" points="149.369,-355.733 154.158,-354.297 "/>
</g>
<!-- AssignmentsController -->
<g id="node4" class="node"><title>AssignmentsController</title>
<ellipse fill="none" stroke="black" cx="426.045" cy="-18" rx="100.755" ry="18"/>
<text text-anchor="middle" x="426.045" y="-12.4" font-family="Times,serif" font-size="14.00">AssignmentsController</text>
</g>
<!-- ApplicationController&#45;&gt;AssignmentsController -->
<g id="edge2" class="edge"><title>ApplicationController&#45;&gt;AssignmentsController</title>
<path fill="none" stroke="black" d="M368.966,-272.742C379.765,-224.548 408.927,-94.3988 420.854,-41.1679"/>
<polyline fill="none" stroke="black" points="421.953,-36.262 420.86,-41.141 "/>
</g>
<!-- AudioFilesController -->
<g id="node5" class="node"><title>AudioFilesController</title>
<ellipse fill="none" stroke="black" cx="397.676" cy="-567.762" rx="93.807" ry="18"/>
<text text-anchor="middle" x="397.676" y="-562.162" font-family="Times,serif" font-size="14.00">AudioFilesController</text>
</g>
<!-- ApplicationController&#45;&gt;AudioFilesController -->
<g id="edge3" class="edge"><title>ApplicationController&#45;&gt;AudioFilesController</title>
<path fill="none" stroke="black" d="M367.01,-309.237C372.759,-357.705 388.468,-490.134 394.887,-544.25"/>
<polyline fill="none" stroke="black" points="395.515,-549.542 394.926,-544.577 "/>
</g>
<!-- CoursesController -->
<g id="node6" class="node"><title>CoursesController</title>
<ellipse fill="none" stroke="black" cx="568.505" cy="-480.997" rx="81.6928" ry="18"/>
<text text-anchor="middle" x="568.505" y="-475.397" font-family="Times,serif" font-size="14.00">CoursesController</text>
</g>
<!-- ApplicationController&#45;&gt;CoursesController -->
<g id="edge4" class="edge"><title>ApplicationController&#45;&gt;CoursesController</title>
<path fill="none" stroke="black" d="M384.015,-308.95C421.712,-344.105 505.356,-422.108 545.772,-459.798"/>
<polyline fill="none" stroke="black" points="549.545,-463.317 545.889,-459.906 "/>
</g>
<!-- EnrollmentsController -->
<g id="node7" class="node"><title>EnrollmentsController</title>
<ellipse fill="none" stroke="black" cx="211.771" cy="-523.762" rx="97.8698" ry="18"/>
<text text-anchor="middle" x="211.771" y="-518.162" font-family="Times,serif" font-size="14.00">EnrollmentsController</text>
</g>
<!-- ApplicationController&#45;&gt;EnrollmentsController -->
<g id="edge5" class="edge"><title>ApplicationController&#45;&gt;EnrollmentsController</title>
<path fill="none" stroke="black" d="M353.099,-308.955C325.494,-350.913 256.594,-455.635 226.371,-501.572"/>
<polyline fill="none" stroke="black" points="223.57,-505.83 226.318,-501.653 "/>
</g>
<!-- ResponsesController -->
<g id="node8" class="node"><title>ResponsesController</title>
<ellipse fill="none" stroke="black" cx="107.701" cy="-180.474" rx="91.5064" ry="18"/>
<text text-anchor="middle" x="107.701" y="-174.874" font-family="Times,serif" font-size="14.00">ResponsesController</text>
</g>
<!-- ApplicationController&#45;&gt;ResponsesController -->
<g id="edge6" class="edge"><title>ApplicationController&#45;&gt;ResponsesController</title>
<path fill="none" stroke="black" d="M326.358,-274.524C279.258,-254.265 199.75,-220.067 150.693,-198.966"/>
<polyline fill="none" stroke="black" points="146.043,-196.966 150.636,-198.941 "/>
</g>
<!-- SessionsController -->
<g id="node9" class="node"><title>SessionsController</title>
<ellipse fill="none" stroke="black" cx="643.163" cy="-304.628" rx="84.0023" ry="18"/>
<text text-anchor="middle" x="643.163" y="-299.028" font-family="Times,serif" font-size="14.00">SessionsController</text>
</g>
<!-- ApplicationController&#45;&gt;SessionsController -->
<g id="edge7" class="edge"><title>ApplicationController&#45;&gt;SessionsController</title>
<path fill="none" stroke="black" d="M458.303,-295.631C489.8,-297.164 524.812,-298.868 555.82,-300.377"/>
<polyline fill="none" stroke="black" points="561.16,-300.637 556.166,-300.394 "/>
</g>
<!-- UsersController -->
<g id="node10" class="node"><title>UsersController</title>
<ellipse fill="none" stroke="black" cx="238.716" cy="-44.249" rx="72.9449" ry="18"/>
<text text-anchor="middle" x="238.716" y="-38.649" font-family="Times,serif" font-size="14.00">UsersController</text>
</g>
<!-- ApplicationController&#45;&gt;UsersController -->
<g id="edge8" class="edge"><title>ApplicationController&#45;&gt;UsersController</title>
<path fill="none" stroke="black" d="M355.581,-272.933C332.983,-228.712 275.117,-115.479 250.301,-66.919"/>
<polyline fill="none" stroke="black" points="248.005,-62.426 250.281,-66.8783 "/>
</g>
<!-- WelcomeController -->
<g id="node11" class="node"><title>WelcomeController</title>
<ellipse fill="none" stroke="black" cx="586.344" cy="-122.304" rx="86.9153" ry="18"/>
<text text-anchor="middle" x="586.344" y="-116.704" font-family="Times,serif" font-size="14.00">WelcomeController</text>
</g>
<!-- ApplicationController&#45;&gt;WelcomeController -->
<g id="edge9" class="edge"><title>ApplicationController&#45;&gt;WelcomeController</title>
<path fill="none" stroke="black" d="M388.141,-273.34C429.458,-241.856 515.366,-176.391 559.258,-142.945"/>
<polyline fill="none" stroke="black" points="563.372,-139.81 559.395,-142.841 "/>
</g>
</g>
</svg>
