<?xml version="1.0" encoding="UTF-8" standalone="no"?>
<!DOCTYPE svg PUBLIC "-//W3C//DTD SVG 1.1//EN"
 "http://www.w3.org/Graphics/SVG/1.1/DTD/svg11.dtd">
<!-- Generated by graphviz version 2.34.0 (20140110.0526)
 -->
<!-- Title: models_diagram Pages: 1 -->
<svg width="945pt" height="902pt"
 viewBox="0.00 0.00 945.00 902.00" xmlns="http://www.w3.org/2000/svg" xmlns:xlink="http://www.w3.org/1999/xlink">
<g id="graph0" class="graph" transform="scale(1 1) rotate(0) translate(4 898)">
<title>models_diagram</title>
<polygon fill="white" stroke="white" points="-4,4 -4,-898 941,-898 941,4 -4,4"/>
<!-- _diagram_info -->
<g id="node1" class="node"><title>_diagram_info</title>
<text text-anchor="start" x="7.31226" y="-877" font-family="Times,serif" font-size="13.00">Models diagram</text>
<text text-anchor="start" x="7.31226" y="-861.4" font-family="Times,serif" font-size="13.00">Date: May 07 2014 &#45; 22:05</text>
<text text-anchor="start" x="7.31226" y="-845.8" font-family="Times,serif" font-size="13.00">Migration version: 20140506030512</text>
<text text-anchor="start" x="7.31226" y="-830.2" font-family="Times,serif" font-size="13.00">Generated by RailRoady 1.1.1</text>
<text text-anchor="start" x="7.31226" y="-814.6" font-family="Times,serif" font-size="13.00">http://railroady.prestonlee.com</text>
</g>
<!-- Annotation -->
<g id="node2" class="node"><title>Annotation</title>
<path fill="none" stroke="black" d="M57.9292,-0.4C57.9292,-0.4 170.071,-0.4 170.071,-0.4 176.071,-0.4 182.071,-6.4 182.071,-12.4 182.071,-12.4 182.071,-155.6 182.071,-155.6 182.071,-161.6 176.071,-167.6 170.071,-167.6 170.071,-167.6 57.9292,-167.6 57.9292,-167.6 51.9292,-167.6 45.9292,-161.6 45.9292,-155.6 45.9292,-155.6 45.9292,-12.4 45.9292,-12.4 45.9292,-6.4 51.9292,-0.4 57.9292,-0.4"/>
<text text-anchor="middle" x="114" y="-149.6" font-family="Times,serif" font-size="14.00">Annotation</text>
<polyline fill="none" stroke="black" points="45.9292,-142.8 182.071,-142.8 "/>
<text text-anchor="start" x="53.9292" y="-124.8" font-family="Times,serif" font-size="14.00">id :integer</text>
<text text-anchor="start" x="53.9292" y="-108" font-family="Times,serif" font-size="14.00">response_id :integer</text>
<text text-anchor="start" x="53.9292" y="-91.2" font-family="Times,serif" font-size="14.00">audio_file_id :integer</text>
<text text-anchor="start" x="53.9292" y="-74.4" font-family="Times,serif" font-size="14.00">start_second :float</text>
<text text-anchor="start" x="53.9292" y="-57.6" font-family="Times,serif" font-size="14.00">end_second :float</text>
<text text-anchor="start" x="53.9292" y="-40.8" font-family="Times,serif" font-size="14.00">notes :text</text>
<text text-anchor="start" x="53.9292" y="-24" font-family="Times,serif" font-size="14.00">created_at :datetime</text>
<text text-anchor="start" x="53.9292" y="-7.2" font-family="Times,serif" font-size="14.00">updated_at :datetime</text>
</g>
<!-- Assignment -->
<g id="node3" class="node"><title>Assignment</title>
<path fill="none" stroke="black" d="M161.302,-429.8C161.302,-429.8 272.698,-429.8 272.698,-429.8 278.698,-429.8 284.698,-435.8 284.698,-441.8 284.698,-441.8 284.698,-568.2 284.698,-568.2 284.698,-574.2 278.698,-580.2 272.698,-580.2 272.698,-580.2 161.302,-580.2 161.302,-580.2 155.302,-580.2 149.302,-574.2 149.302,-568.2 149.302,-568.2 149.302,-441.8 149.302,-441.8 149.302,-435.8 155.302,-429.8 161.302,-429.8"/>
<text text-anchor="middle" x="217" y="-562.2" font-family="Times,serif" font-size="14.00">Assignment</text>
<polyline fill="none" stroke="black" points="149.302,-555.4 284.698,-555.4 "/>
<text text-anchor="start" x="157.302" y="-537.4" font-family="Times,serif" font-size="14.00">id :integer</text>
<text text-anchor="start" x="157.302" y="-520.6" font-family="Times,serif" font-size="14.00">course_id :integer</text>
<text text-anchor="start" x="157.302" y="-503.8" font-family="Times,serif" font-size="14.00">due_date :datetime</text>
<text text-anchor="start" x="157.302" y="-487" font-family="Times,serif" font-size="14.00">created_at :datetime</text>
<text text-anchor="start" x="157.302" y="-470.2" font-family="Times,serif" font-size="14.00">updated_at :datetime</text>
<text text-anchor="start" x="157.302" y="-453.4" font-family="Times,serif" font-size="14.00">name :string</text>
<text text-anchor="start" x="157.302" y="-436.6" font-family="Times,serif" font-size="14.00">points_possible :float</text>
</g>
<!-- Response -->
<g id="node7" class="node"><title>Response</title>
<path fill="none" stroke="black" d="M123.429,-206.4C123.429,-206.4 242.571,-206.4 242.571,-206.4 248.571,-206.4 254.571,-212.4 254.571,-218.4 254.571,-218.4 254.571,-361.6 254.571,-361.6 254.571,-367.6 248.571,-373.6 242.571,-373.6 242.571,-373.6 123.429,-373.6 123.429,-373.6 117.429,-373.6 111.429,-367.6 111.429,-361.6 111.429,-361.6 111.429,-218.4 111.429,-218.4 111.429,-212.4 117.429,-206.4 123.429,-206.4"/>
<text text-anchor="middle" x="183" y="-355.6" font-family="Times,serif" font-size="14.00">Response</text>
<polyline fill="none" stroke="black" points="111.429,-348.8 254.571,-348.8 "/>
<text text-anchor="start" x="119.429" y="-330.8" font-family="Times,serif" font-size="14.00">id :integer</text>
<text text-anchor="start" x="119.429" y="-314" font-family="Times,serif" font-size="14.00">assignment_id :integer</text>
<text text-anchor="start" x="119.429" y="-297.2" font-family="Times,serif" font-size="14.00">user_id :integer</text>
<text text-anchor="start" x="119.429" y="-280.4" font-family="Times,serif" font-size="14.00">audio_file_id :integer</text>
<text text-anchor="start" x="119.429" y="-263.6" font-family="Times,serif" font-size="14.00">notes :text</text>
<text text-anchor="start" x="119.429" y="-246.8" font-family="Times,serif" font-size="14.00">created_at :datetime</text>
<text text-anchor="start" x="119.429" y="-230" font-family="Times,serif" font-size="14.00">updated_at :datetime</text>
<text text-anchor="start" x="119.429" y="-213.2" font-family="Times,serif" font-size="14.00">score :float</text>
</g>
<!-- Assignment&#45;&gt;Response -->
<g id="edge2" class="edge"><title>Assignment&#45;&gt;Response</title>
<path fill="none" stroke="#4e9cc3" d="M203.816,-421.408C201.849,-409.083 199.81,-396.308 197.811,-383.789"/>
<ellipse fill="none" stroke="#4e9cc3" cx="204.478" cy="-425.553" rx="4.00001" ry="4.00001"/>
<polygon fill="#4e9cc3" stroke="#4e9cc3" points="197.796,-383.693 200.664,-373.109 197.008,-378.756 196.22,-373.818 196.22,-373.818 196.22,-373.818 197.008,-378.756 191.776,-374.528 197.796,-383.693 197.796,-383.693"/>
</g>
<!-- AudioFile -->
<g id="node4" class="node"><title>AudioFile</title>
<path fill="none" stroke="black" d="M816.495,-669.4C816.495,-669.4 925.505,-669.4 925.505,-669.4 931.505,-669.4 937.505,-675.4 937.505,-681.4 937.505,-681.4 937.505,-740.6 937.505,-740.6 937.505,-746.6 931.505,-752.6 925.505,-752.6 925.505,-752.6 816.495,-752.6 816.495,-752.6 810.495,-752.6 804.495,-746.6 804.495,-740.6 804.495,-740.6 804.495,-681.4 804.495,-681.4 804.495,-675.4 810.495,-669.4 816.495,-669.4"/>
<text text-anchor="middle" x="871" y="-734.6" font-family="Times,serif" font-size="14.00">AudioFile</text>
<polyline fill="none" stroke="black" points="804.495,-727.8 937.505,-727.8 "/>
<text text-anchor="start" x="812.495" y="-709.8" font-family="Times,serif" font-size="14.00">id :integer</text>
<text text-anchor="start" x="812.495" y="-693" font-family="Times,serif" font-size="14.00">created_at :datetime</text>
<text text-anchor="start" x="812.495" y="-676.2" font-family="Times,serif" font-size="14.00">updated_at :datetime</text>
</g>
<!-- Course -->
<g id="node5" class="node"><title>Course</title>
<path fill="none" stroke="black" d="M478.495,-652.6C478.495,-652.6 587.505,-652.6 587.505,-652.6 593.505,-652.6 599.505,-658.6 599.505,-664.6 599.505,-664.6 599.505,-757.4 599.505,-757.4 599.505,-763.4 593.505,-769.4 587.505,-769.4 587.505,-769.4 478.495,-769.4 478.495,-769.4 472.495,-769.4 466.495,-763.4 466.495,-757.4 466.495,-757.4 466.495,-664.6 466.495,-664.6 466.495,-658.6 472.495,-652.6 478.495,-652.6"/>
<text text-anchor="middle" x="533" y="-751.4" font-family="Times,serif" font-size="14.00">Course</text>
<polyline fill="none" stroke="black" points="466.495,-744.6 599.505,-744.6 "/>
<text text-anchor="start" x="474.495" y="-726.6" font-family="Times,serif" font-size="14.00">id :integer</text>
<text text-anchor="start" x="474.495" y="-709.8" font-family="Times,serif" font-size="14.00">name :string</text>
<text text-anchor="start" x="474.495" y="-693" font-family="Times,serif" font-size="14.00">created_at :datetime</text>
<text text-anchor="start" x="474.495" y="-676.2" font-family="Times,serif" font-size="14.00">updated_at :datetime</text>
<text text-anchor="start" x="474.495" y="-659.4" font-family="Times,serif" font-size="14.00">email_list :text</text>
</g>
<!-- Course&#45;&gt;Assignment -->
<g id="edge5" class="edge"><title>Course&#45;&gt;Assignment</title>
<path fill="none" stroke="#62e396" d="M458.881,-685.817C424.877,-673.016 384.904,-655.471 352,-634 331.291,-620.487 310.894,-603.607 292.475,-586.584"/>
<ellipse fill="none" stroke="#62e396" cx="462.738" cy="-687.248" rx="4.00001" ry="4.00001"/>
<polygon fill="#62e396" stroke="#62e396" points="291.996,-586.135 287.787,-576.009 288.352,-582.712 284.707,-579.289 284.707,-579.289 284.707,-579.289 288.352,-582.712 281.626,-582.569 291.996,-586.135 291.996,-586.135"/>
</g>
<!-- Enrollment -->
<g id="node6" class="node"><title>Enrollment</title>
<path fill="none" stroke="black" d="M454.495,-223.2C454.495,-223.2 563.505,-223.2 563.505,-223.2 569.505,-223.2 575.505,-229.2 575.505,-235.2 575.505,-235.2 575.505,-344.8 575.505,-344.8 575.505,-350.8 569.505,-356.8 563.505,-356.8 563.505,-356.8 454.495,-356.8 454.495,-356.8 448.495,-356.8 442.495,-350.8 442.495,-344.8 442.495,-344.8 442.495,-235.2 442.495,-235.2 442.495,-229.2 448.495,-223.2 454.495,-223.2"/>
<text text-anchor="middle" x="509" y="-338.8" font-family="Times,serif" font-size="14.00">Enrollment</text>
<polyline fill="none" stroke="black" points="442.495,-332 575.505,-332 "/>
<text text-anchor="start" x="450.495" y="-314" font-family="Times,serif" font-size="14.00">id :integer</text>
<text text-anchor="start" x="450.495" y="-297.2" font-family="Times,serif" font-size="14.00">course_id :integer</text>
<text text-anchor="start" x="450.495" y="-280.4" font-family="Times,serif" font-size="14.00">user_id :integer</text>
<text text-anchor="start" x="450.495" y="-263.6" font-family="Times,serif" font-size="14.00">user_role :integer</text>
<text text-anchor="start" x="450.495" y="-246.8" font-family="Times,serif" font-size="14.00">created_at :datetime</text>
<text text-anchor="start" x="450.495" y="-230" font-family="Times,serif" font-size="14.00">updated_at :datetime</text>
</g>
<!-- Course&#45;&gt;Enrollment -->
<g id="edge6" class="edge"><title>Course&#45;&gt;Enrollment</title>
<path fill="none" stroke="#b6ea81" d="M576.246,-645.702C584.311,-635.34 593.037,-625.056 602,-616 611.379,-606.524 620.037,-609.926 626,-598 662.97,-524.061 656.992,-488.637 626,-412 616.654,-388.889 600.543,-367.743 583.215,-349.82"/>
<ellipse fill="none" stroke="#b6ea81" cx="573.744" cy="-648.976" rx="4.00002" ry="4.00002"/>
<polygon fill="#b6ea81" stroke="#b6ea81" points="582.803,-349.409 578.911,-339.157 579.266,-345.874 575.73,-342.34 575.73,-342.34 575.73,-342.34 579.266,-345.874 572.549,-345.523 582.803,-349.409 582.803,-349.409"/>
</g>
<!-- Course&#45;&gt;Enrollment -->
<g id="edge8" class="edge"><title>Course&#45;&gt;Enrollment</title>
<path fill="none" stroke="#f562d1" d="M458.854,-677.719C426.423,-659.399 391.673,-633.035 373.462,-598 335.335,-524.651 339.678,-487.448 373.462,-412 386.434,-383.031 410.149,-358.141 434.157,-338.599"/>
<ellipse fill="none" stroke="#f562d1" cx="462.659" cy="-679.811" rx="4.00002" ry="4.00002"/>
<polygon fill="#f562d1" stroke="#f562d1" points="434.444,-338.372 445.083,-335.711 438.37,-335.275 442.295,-332.178 442.295,-332.178 442.295,-332.178 438.37,-335.275 439.508,-328.645 434.444,-338.372 434.444,-338.372"/>
<text text-anchor="middle" x="429.769" y="-499.4" font-family="Times,serif" font-size="14.00">student_enrollments</text>
</g>
<!-- Course&#45;&gt;Enrollment -->
<g id="edge10" class="edge"><title>Course&#45;&gt;Enrollment</title>
<path fill="none" stroke="#ba3124" d="M516.238,-644.691C513.022,-629.469 510.145,-613.251 508.496,-598 500.03,-519.695 501.506,-429.497 504.267,-367.229"/>
<ellipse fill="none" stroke="#ba3124" cx="517.096" cy="-648.641" rx="4.00001" ry="4.00001"/>
<polygon fill="#ba3124" stroke="#ba3124" points="504.273,-367.085 509.233,-357.305 504.506,-362.09 504.738,-357.096 504.738,-357.096 504.738,-357.096 504.506,-362.09 500.243,-356.886 504.273,-367.085 504.273,-367.085"/>
<text text-anchor="middle" x="564.752" y="-499.4" font-family="Times,serif" font-size="14.00">teacher_enrollments</text>
</g>
<!-- User -->
<g id="node8" class="node"><title>User</title>
<path fill="none" stroke="black" d="M691.495,-413C691.495,-413 800.505,-413 800.505,-413 806.505,-413 812.505,-419 812.505,-425 812.505,-425 812.505,-585 812.505,-585 812.505,-591 806.505,-597 800.505,-597 800.505,-597 691.495,-597 691.495,-597 685.495,-597 679.495,-591 679.495,-585 679.495,-585 679.495,-425 679.495,-425 679.495,-419 685.495,-413 691.495,-413"/>
<text text-anchor="middle" x="746" y="-579" font-family="Times,serif" font-size="14.00">User</text>
<polyline fill="none" stroke="black" points="679.495,-572.2 812.505,-572.2 "/>
<text text-anchor="start" x="687.495" y="-554.2" font-family="Times,serif" font-size="14.00">id :integer</text>
<text text-anchor="start" x="687.495" y="-537.4" font-family="Times,serif" font-size="14.00">provider :string</text>
<text text-anchor="start" x="687.495" y="-520.6" font-family="Times,serif" font-size="14.00">uid :string</text>
<text text-anchor="start" x="687.495" y="-503.8" font-family="Times,serif" font-size="14.00">first_name :string</text>
<text text-anchor="start" x="687.495" y="-487" font-family="Times,serif" font-size="14.00">last_name :string</text>
<text text-anchor="start" x="687.495" y="-470.2" font-family="Times,serif" font-size="14.00">email :string</text>
<text text-anchor="start" x="687.495" y="-453.4" font-family="Times,serif" font-size="14.00">created_at :datetime</text>
<text text-anchor="start" x="687.495" y="-436.6" font-family="Times,serif" font-size="14.00">updated_at :datetime</text>
<text text-anchor="start" x="687.495" y="-419.8" font-family="Times,serif" font-size="14.00">admin :boolean</text>
</g>
<!-- Course&#45;&gt;User -->
<g id="edge7" class="edge"><title>Course&#45;&gt;User</title>
<path fill="none" stroke="#007799" d="M591.521,-645.439C602.715,-634.893 614.774,-624.616 627,-616 642.276,-605.235 650.074,-609.245 665,-598 667.082,-596.431 669.151,-594.802 671.202,-593.122"/>
<polygon fill="#007799" stroke="#007799" points="591.501,-645.457 581.176,-649.15 587.899,-648.925 584.296,-652.392 584.296,-652.392 584.296,-652.392 587.899,-648.925 587.417,-655.635 591.501,-645.457 591.501,-645.457"/>
<polygon fill="#007799" stroke="#007799" points="671.434,-592.923 681.952,-589.821 675.227,-589.665 679.02,-586.407 679.02,-586.407 679.02,-586.407 675.227,-589.665 676.088,-582.993 671.434,-592.923 671.434,-592.923"/>
</g>
<!-- Course&#45;&gt;User -->
<g id="edge9" class="edge"><title>Course&#45;&gt;User</title>
<path fill="none" stroke="#45919f" d="M607.435,-648.091C613.054,-643.339 618.626,-638.602 624,-634 642.419,-618.227 647.841,-615.136 665,-598 667.334,-595.669 669.682,-593.283 672.035,-590.858"/>
<polygon fill="#45919f" stroke="#45919f" points="607.4,-648.121 596.855,-651.13 603.578,-651.345 599.757,-654.569 599.757,-654.569 599.757,-654.569 603.578,-651.345 602.659,-658.009 607.4,-648.121 607.4,-648.121"/>
<polygon fill="#45919f" stroke="#45919f" points="672.182,-590.704 682.345,-586.587 675.637,-587.09 679.093,-583.477 679.093,-583.477 679.093,-583.477 675.637,-587.09 675.841,-580.366 672.182,-590.704 672.182,-590.704"/>
<text text-anchor="middle" x="666.945" y="-619.4" font-family="Times,serif" font-size="14.00">students</text>
</g>
<!-- Course&#45;&gt;User -->
<g id="edge11" class="edge"><title>Course&#45;&gt;User</title>
<path fill="none" stroke="#db7a5a" d="M609.164,-687.099C638.437,-675.163 670.252,-657.936 693,-634 700.817,-625.775 707.553,-616.233 713.341,-606.141"/>
<polygon fill="#db7a5a" stroke="#db7a5a" points="609.072,-687.135 598.119,-686.601 604.418,-688.962 599.764,-690.79 599.764,-690.79 599.764,-690.79 604.418,-688.962 601.408,-694.978 609.072,-687.135 609.072,-687.135"/>
<polygon fill="#db7a5a" stroke="#db7a5a" points="713.443,-605.952 722.148,-599.284 715.815,-601.551 718.187,-597.149 718.187,-597.149 718.187,-597.149 715.815,-601.551 714.225,-595.014 713.443,-605.952 713.443,-605.952"/>
<text text-anchor="middle" x="728.928" y="-619.4" font-family="Times,serif" font-size="14.00">teachers</text>
</g>
<!-- Response&#45;&gt;Annotation -->
<g id="edge14" class="edge"><title>Response&#45;&gt;Annotation</title>
<path fill="none" stroke="#b90c25" d="M152.402,-198.535C150.023,-191.503 147.62,-184.397 145.237,-177.353"/>
<ellipse fill="none" stroke="#b90c25" cx="153.753" cy="-202.53" rx="4.00001" ry="4.00001"/>
<polygon fill="#b90c25" stroke="#b90c25" points="145.209,-177.271 146.268,-166.356 143.607,-172.535 142.005,-167.798 142.005,-167.798 142.005,-167.798 143.607,-172.535 137.743,-169.24 145.209,-177.271 145.209,-177.271"/>
</g>
<!-- User&#45;&gt;Enrollment -->
<g id="edge16" class="edge"><title>User&#45;&gt;Enrollment</title>
<path fill="none" stroke="#52a269" d="M679.304,-406.754C674.658,-401.593 669.877,-396.632 665,-392 641.04,-369.245 611.283,-348.532 584.203,-331.868"/>
<ellipse fill="none" stroke="#52a269" cx="682.057" cy="-409.891" rx="4.00002" ry="4.00002"/>
<polygon fill="#52a269" stroke="#52a269" points="584.067,-331.786 577.847,-322.755 579.791,-329.195 575.515,-326.603 575.515,-326.603 575.515,-326.603 579.791,-329.195 573.183,-330.452 584.067,-331.786 584.067,-331.786"/>
</g>
<!-- ActiveRecord::Base -->
<g id="node9" class="node"><title>ActiveRecord::Base</title>
<ellipse fill="none" stroke="black" cx="313" cy="-851" rx="88.2033" ry="18"/>
<text text-anchor="middle" x="313" y="-845.4" font-family="Times,serif" font-size="14.00">ActiveRecord::Base</text>
</g>
<!-- ActiveRecord::Base&#45;&gt;Annotation -->
<g id="edge1" class="edge"><title>ActiveRecord::Base&#45;&gt;Annotation</title>
<path fill="none" stroke="black" d="M280.047,-834.095C216.45,-802.888 83,-734.701 83,-712 83,-712 83,-712 83,-289 83,-250.759 88.3904,-208.938 94.6756,-173.173"/>
<polyline fill="none" stroke="black" points="95.6089,-167.941 94.7307,-172.863 "/>
</g>
<!-- ActiveRecord::Base&#45;&gt;Assignment -->
<g id="edge3" class="edge"><title>ActiveRecord::Base&#45;&gt;Assignment</title>
<path fill="none" stroke="black" d="M308.239,-832.941C295.831,-788.478 261.882,-666.828 239.08,-585.121"/>
<polyline fill="none" stroke="black" points="237.731,-580.286 239.075,-585.102 "/>
</g>
<!-- ActiveRecord::Base&#45;&gt;AudioFile -->
<g id="edge4" class="edge"><title>ActiveRecord::Base&#45;&gt;AudioFile</title>
<path fill="none" stroke="black" d="M397.715,-845.753C515.67,-838.758 722.506,-822.257 790,-790 806.584,-782.074 821.925,-769.429 834.695,-756.606"/>
<polyline fill="none" stroke="black" points="838.227,-752.989 834.734,-756.566 "/>
</g>
<!-- ActiveRecord::Base&#45;&gt;Course -->
<g id="edge12" class="edge"><title>ActiveRecord::Base&#45;&gt;Course</title>
<path fill="none" stroke="black" d="M339.101,-833.628C369.252,-814.715 420.108,-782.814 462.173,-756.428"/>
<polyline fill="none" stroke="black" points="466.475,-753.729 462.239,-756.386 "/>
</g>
<!-- ActiveRecord::Base&#45;&gt;Enrollment -->
<g id="edge13" class="edge"><title>ActiveRecord::Base&#45;&gt;Enrollment</title>
<path fill="none" stroke="black" d="M312.233,-832.792C309.322,-761.047 301.078,-486.034 342,-412 363.217,-373.614 402.368,-344.259 437.431,-324.081"/>
<polyline fill="none" stroke="black" points="442.128,-321.418 437.778,-323.884 "/>
</g>
<!-- ActiveRecord::Base&#45;&gt;Response -->
<g id="edge15" class="edge"><title>ActiveRecord::Base&#45;&gt;Response</title>
<path fill="none" stroke="black" d="M295.621,-833.122C258.105,-795.302 170.467,-699.114 140,-598 116.151,-518.848 125.955,-493.465 140,-412 141.889,-401.045 144.673,-389.767 147.932,-378.708"/>
<polyline fill="none" stroke="black" points="149.462,-373.644 148.016,-378.43 "/>
</g>
<!-- ActiveRecord::Base&#45;&gt;User -->
<g id="edge17" class="edge"><title>ActiveRecord::Base&#45;&gt;User</title>
<path fill="none" stroke="black" d="M384.871,-840.411C446.966,-829.88 537.552,-809.007 608,-770 685.866,-726.885 719.348,-715.553 755,-634 759.372,-623.999 761.741,-613.137 762.713,-602.111"/>
<polyline fill="none" stroke="black" points="763.064,-597.036 762.719,-602.024 "/>
</g>
</g>
</svg>
