<?xml version="1.0" encoding="UTF-8" standalone="no"?>
<!DOCTYPE svg PUBLIC "-//W3C//DTD SVG 1.1//EN"
 "http://www.w3.org/Graphics/SVG/1.1/DTD/svg11.dtd">
<!-- Generated by graphviz version 2.34.0 (20140110.0526)
 -->
<!-- Title: models_diagram Pages: 1 -->
<svg width="881pt" height="406pt"
 viewBox="0.00 0.00 881.00 406.00" xmlns="http://www.w3.org/2000/svg" xmlns:xlink="http://www.w3.org/1999/xlink">
<g id="graph0" class="graph" transform="scale(1 1) rotate(0) translate(4 402)">
<title>models_diagram</title>
<polygon fill="white" stroke="white" points="-4,4 -4,-402 877,-402 877,4 -4,4"/>
<!-- _diagram_info -->
<g id="node1" class="node"><title>_diagram_info</title>
<text text-anchor="start" x="7.31226" y="-381" font-family="Times,serif" font-size="13.00">Models diagram</text>
<text text-anchor="start" x="7.31226" y="-365.4" font-family="Times,serif" font-size="13.00">Date: May 07 2014 &#45; 22:05</text>
<text text-anchor="start" x="7.31226" y="-349.8" font-family="Times,serif" font-size="13.00">Migration version: 20140506030512</text>
<text text-anchor="start" x="7.31226" y="-334.2" font-family="Times,serif" font-size="13.00">Generated by RailRoady 1.1.1</text>
<text text-anchor="start" x="7.31226" y="-318.6" font-family="Times,serif" font-size="13.00">http://railroady.prestonlee.com</text>
</g>
<!-- Annotation -->
<g id="node2" class="node"><title>Annotation</title>
<ellipse fill="none" stroke="black" cx="130" cy="-18" rx="54.2321" ry="18"/>
<text text-anchor="middle" x="130" y="-12.4" font-family="Times,serif" font-size="14.00">Annotation</text>
</g>
<!-- Assignment -->
<g id="node3" class="node"><title>Assignment</title>
<ellipse fill="none" stroke="black" cx="228" cy="-166" rx="57.2639" ry="18"/>
<text text-anchor="middle" x="228" y="-160.4" font-family="Times,serif" font-size="14.00">Assignment</text>
</g>
<!-- Response -->
<g id="node7" class="node"><title>Response</title>
<ellipse fill="none" stroke="black" cx="181" cy="-92" rx="48.0775" ry="18"/>
<text text-anchor="middle" x="181" y="-86.4" font-family="Times,serif" font-size="14.00">Response</text>
</g>
<!-- Assignment&#45;&gt;Response -->
<g id="edge2" class="edge"><title>Assignment&#45;&gt;Response</title>
<path fill="none" stroke="#c6342b" d="M212.598,-141.406C207.721,-133.934 202.314,-125.651 197.371,-118.079"/>
<ellipse fill="none" stroke="#c6342b" cx="214.913" cy="-144.951" rx="4.00002" ry="4.00002"/>
<polygon fill="#c6342b" stroke="#c6342b" points="197.308,-117.982 195.61,-107.149 194.575,-113.796 191.842,-109.609 191.842,-109.609 191.842,-109.609 194.575,-113.796 188.074,-112.068 197.308,-117.982 197.308,-117.982"/>
</g>
<!-- AudioFile -->
<g id="node4" class="node"><title>AudioFile</title>
<ellipse fill="none" stroke="black" cx="823" cy="-256" rx="50.3032" ry="18"/>
<text text-anchor="middle" x="823" y="-250.4" font-family="Times,serif" font-size="14.00">AudioFile</text>
</g>
<!-- Course -->
<g id="node5" class="node"><title>Course</title>
<ellipse fill="none" stroke="black" cx="521" cy="-256" rx="38.0929" ry="18"/>
<text text-anchor="middle" x="521" y="-250.4" font-family="Times,serif" font-size="14.00">Course</text>
</g>
<!-- Course&#45;&gt;Assignment -->
<g id="edge5" class="edge"><title>Course&#45;&gt;Assignment</title>
<path fill="none" stroke="#bb848e" d="M477.191,-248.399C442.71,-242.615 393.685,-233.081 352,-220 322.617,-210.78 290.692,-197.042 266.594,-185.863"/>
<ellipse fill="none" stroke="#bb848e" cx="481.246" cy="-249.067" rx="4.00001" ry="4.00001"/>
<polygon fill="#bb848e" stroke="#bb848e" points="266.487,-185.813 259.348,-177.49 261.962,-183.688 257.436,-181.563 257.436,-181.563 257.436,-181.563 261.962,-183.688 255.523,-185.637 266.487,-185.813 266.487,-185.813"/>
</g>
<!-- Enrollment -->
<g id="node6" class="node"><title>Enrollment</title>
<ellipse fill="none" stroke="black" cx="509" cy="-92" rx="54.2251" ry="18"/>
<text text-anchor="middle" x="509" y="-86.4" font-family="Times,serif" font-size="14.00">Enrollment</text>
</g>
<!-- Course&#45;&gt;Enrollment -->
<g id="edge6" class="edge"><title>Course&#45;&gt;Enrollment</title>
<path fill="none" stroke="#406ba7" d="M538.028,-232.264C546.868,-221.801 558.44,-209.97 571,-202 592.717,-188.22 610.904,-204.824 626,-184 635.391,-171.046 634.576,-161.508 626,-148 612.263,-126.363 587.503,-113.086 564.286,-105.015"/>
<ellipse fill="none" stroke="#406ba7" cx="535.421" cy="-235.457" rx="4.00002" ry="4.00002"/>
<polygon fill="#406ba7" stroke="#406ba7" points="563.989,-104.92 555.842,-97.581 559.228,-103.393 554.467,-101.866 554.467,-101.866 554.467,-101.866 559.228,-103.393 553.093,-106.151 563.989,-104.92 563.989,-104.92"/>
</g>
<!-- Course&#45;&gt;Enrollment -->
<g id="edge8" class="edge"><title>Course&#45;&gt;Enrollment</title>
<path fill="none" stroke="#e7e510" d="M477.394,-247.044C442.603,-238.153 396.079,-219.983 373.462,-184 364.948,-170.454 364.525,-161.271 373.462,-148 390.528,-122.657 421.49,-108.987 449.517,-101.616"/>
<ellipse fill="none" stroke="#e7e510" cx="481.629" cy="-248.067" rx="4.00001" ry="4.00001"/>
<polygon fill="#e7e510" stroke="#e7e510" points="449.559,-101.606 460.335,-103.637 454.42,-100.434 459.281,-99.2622 459.281,-99.2622 459.281,-99.2622 454.42,-100.434 458.226,-94.8875 449.559,-101.606 449.559,-101.606"/>
<text text-anchor="middle" x="429.769" y="-160.4" font-family="Times,serif" font-size="14.00">student_enrollments</text>
</g>
<!-- Course&#45;&gt;Enrollment -->
<g id="edge10" class="edge"><title>Course&#45;&gt;Enrollment</title>
<path fill="none" stroke="#ce2991" d="M515.493,-229.968C512.794,-216.434 509.84,-199.385 508.496,-184 507.103,-168.061 508.423,-164 508.496,-148 508.537,-139.039 508.616,-129.257 508.699,-120.46"/>
<ellipse fill="none" stroke="#ce2991" cx="516.317" cy="-233.977" rx="4.00001" ry="4.00001"/>
<polygon fill="#ce2991" stroke="#ce2991" points="508.7,-120.339 513.3,-110.385 508.75,-115.339 508.8,-110.34 508.8,-110.34 508.8,-110.34 508.75,-115.339 504.301,-110.294 508.7,-120.339 508.7,-120.339"/>
<text text-anchor="middle" x="564.752" y="-160.4" font-family="Times,serif" font-size="14.00">teacher_enrollments</text>
</g>
<!-- User -->
<g id="node8" class="node"><title>User</title>
<ellipse fill="none" stroke="black" cx="708" cy="-166" rx="28.9087" ry="18"/>
<text text-anchor="middle" x="708" y="-160.4" font-family="Times,serif" font-size="14.00">User</text>
</g>
<!-- Course&#45;&gt;User -->
<g id="edge7" class="edge"><title>Course&#45;&gt;User</title>
<path fill="none" stroke="#26cfcb" d="M548.974,-234.5C568.08,-220.627 590.836,-204.401 596,-202 624.739,-188.639 634.875,-193.844 665,-184 668.305,-182.92 671.722,-181.719 675.12,-180.468"/>
<polygon fill="#26cfcb" stroke="#26cfcb" points="548.884,-234.566 538.151,-236.815 544.842,-237.509 540.8,-240.453 540.8,-240.453 540.8,-240.453 544.842,-237.509 543.449,-244.09 548.884,-234.566 548.884,-234.566"/>
<polygon fill="#26cfcb" stroke="#26cfcb" points="675.189,-180.442 686.137,-181.078 679.86,-178.658 684.531,-176.874 684.531,-176.874 684.531,-176.874 679.86,-178.658 682.925,-172.67 675.189,-180.442 675.189,-180.442"/>
</g>
<!-- Course&#45;&gt;User -->
<g id="edge9" class="edge"><title>Course&#45;&gt;User</title>
<path fill="none" stroke="#2105b0" d="M557.777,-238.946C569.325,-233.427 581.94,-226.889 593,-220 604.051,-213.116 604.73,-208.324 616.11,-202 636.349,-190.752 643.368,-192.257 665,-184 668.075,-182.826 671.268,-181.593 674.462,-180.348"/>
<polygon fill="#2105b0" stroke="#2105b0" points="557.447,-239.1 546.482,-239.25 552.916,-241.214 548.385,-243.328 548.385,-243.328 548.385,-243.328 552.916,-241.214 550.287,-247.406 557.447,-239.1 557.447,-239.1"/>
<polygon fill="#2105b0" stroke="#2105b0" points="674.623,-180.285 685.576,-180.82 679.278,-178.458 683.932,-176.631 683.932,-176.631 683.932,-176.631 679.278,-178.458 682.288,-172.443 674.623,-180.285 674.623,-180.285"/>
<text text-anchor="middle" x="638.945" y="-205.4" font-family="Times,serif" font-size="14.00">students</text>
</g>
<!-- Course&#45;&gt;User -->
<g id="edge11" class="edge"><title>Course&#45;&gt;User</title>
<path fill="none" stroke="#9febdf" d="M568.629,-250.498C597.361,-246.07 633.747,-237.309 662,-220 673.688,-212.84 683.987,-201.737 691.86,-191.54"/>
<polygon fill="#9febdf" stroke="#9febdf" points="568.321,-250.541 557.789,-247.485 563.37,-251.241 558.419,-251.941 558.419,-251.941 558.419,-251.941 563.37,-251.241 559.049,-256.397 568.321,-250.541 568.321,-250.541"/>
<polygon fill="#9febdf" stroke="#9febdf" points="691.984,-191.371 701.515,-185.948 694.932,-187.333 697.881,-183.294 697.881,-183.294 697.881,-183.294 694.932,-187.333 694.246,-180.641 691.984,-191.371 691.984,-191.371"/>
<text text-anchor="middle" x="704.928" y="-205.4" font-family="Times,serif" font-size="14.00">teachers</text>
</g>
<!-- Response&#45;&gt;Annotation -->
<g id="edge14" class="edge"><title>Response&#45;&gt;Annotation</title>
<path fill="none" stroke="#df7ef0" d="M164.5,-67.7052C159.172,-60.1841 153.243,-51.8143 147.825,-44.1644"/>
<ellipse fill="none" stroke="#df7ef0" cx="166.859" cy="-71.0367" rx="4.00002" ry="4.00002"/>
<polygon fill="#df7ef0" stroke="#df7ef0" points="147.545,-43.7689 145.437,-33.0076 144.655,-39.6888 141.764,-35.6087 141.764,-35.6087 141.764,-35.6087 144.655,-39.6888 138.092,-38.2098 147.545,-43.7689 147.545,-43.7689"/>
</g>
<!-- User&#45;&gt;Enrollment -->
<g id="edge16" class="edge"><title>User&#45;&gt;Enrollment</title>
<path fill="none" stroke="#49415f" d="M688.276,-144.477C681.426,-138.371 673.355,-132.198 665,-128 635.715,-113.285 600.256,-104.698 570.55,-99.7172"/>
<ellipse fill="none" stroke="#49415f" cx="691.273" cy="-147.276" rx="4.00002" ry="4.00002"/>
<polygon fill="#49415f" stroke="#49415f" points="570.18,-99.6589 561.003,-93.6564 565.241,-98.8802 560.302,-98.1015 560.302,-98.1015 560.302,-98.1015 565.241,-98.8802 559.601,-102.547 570.18,-99.6589 570.18,-99.6589"/>
</g>
<!-- ActiveRecord::Base -->
<g id="node9" class="node"><title>ActiveRecord::Base</title>
<ellipse fill="none" stroke="black" cx="313" cy="-355" rx="88.2033" ry="18"/>
<text text-anchor="middle" x="313" y="-349.4" font-family="Times,serif" font-size="14.00">ActiveRecord::Base</text>
</g>
<!-- ActiveRecord::Base&#45;&gt;Annotation -->
<g id="edge1" class="edge"><title>ActiveRecord::Base&#45;&gt;Annotation</title>
<path fill="none" stroke="black" d="M277.244,-338.304C217.773,-312.067 105,-261.694 105,-257 105,-257 105,-257 105,-91 105,-73.2866 111.836,-54.4106 118.359,-40.4314"/>
<polyline fill="none" stroke="black" points="120.549,-35.8872 118.378,-40.3915 "/>
</g>
<!-- ActiveRecord::Base&#45;&gt;Assignment -->
<g id="edge3" class="edge"><title>ActiveRecord::Base&#45;&gt;Assignment</title>
<path fill="none" stroke="black" d="M305.156,-336.743C289.619,-302.563 254.965,-226.322 237.892,-188.763"/>
<polyline fill="none" stroke="black" points="235.703,-183.946 237.772,-188.497 "/>
</g>
<!-- ActiveRecord::Base&#45;&gt;AudioFile -->
<g id="edge4" class="edge"><title>ActiveRecord::Base&#45;&gt;AudioFile</title>
<path fill="none" stroke="black" d="M400.365,-352.23C491.981,-348.095 639.034,-334.951 759,-294 772.296,-289.461 785.924,-282.039 797.168,-275.028"/>
<polyline fill="none" stroke="black" points="801.513,-272.266 797.294,-274.948 "/>
</g>
<!-- ActiveRecord::Base&#45;&gt;Course -->
<g id="edge12" class="edge"><title>ActiveRecord::Base&#45;&gt;Course</title>
<path fill="none" stroke="black" d="M346.882,-338.199C386.594,-319.68 451.838,-289.253 490.18,-271.373"/>
<polyline fill="none" stroke="black" points="494.718,-269.256 490.187,-271.37 "/>
</g>
<!-- ActiveRecord::Base&#45;&gt;Enrollment -->
<g id="edge13" class="edge"><title>ActiveRecord::Base&#45;&gt;Enrollment</title>
<path fill="none" stroke="black" d="M313.488,-336.878C315.272,-299.717 323.561,-210.027 362,-148 380.802,-117.66 418.851,-103.969 451.527,-97.8324"/>
<polyline fill="none" stroke="black" points="456.721,-96.911 451.798,-97.7843 "/>
</g>
<!-- ActiveRecord::Base&#45;&gt;Response -->
<g id="edge15" class="edge"><title>ActiveRecord::Base&#45;&gt;Response</title>
<path fill="none" stroke="black" d="M290.297,-337.557C254.883,-310.331 187.871,-252.083 162,-184 153.28,-161.052 161.63,-133.247 169.844,-114.459"/>
<polyline fill="none" stroke="black" points="171.919,-109.885 169.853,-114.438 "/>
</g>
<!-- ActiveRecord::Base&#45;&gt;User -->
<g id="edge17" class="edge"><title>ActiveRecord::Base&#45;&gt;User</title>
<path fill="none" stroke="black" d="M378.21,-342.713C484.929,-322.76 689.228,-277.843 731,-220 738.465,-209.663 732.845,-196.522 725.294,-185.912"/>
<polyline fill="none" stroke="black" points="722.211,-181.833 725.226,-185.822 "/>
</g>
</g>
</svg>
